<mxfile host="app.diagrams.net" modified="2021-04-20T00:46:42.974Z" agent="5.0 (Windows NT 10.0; Win64; x64) AppleWebKit/537.36 (KHTML, like Gecko) Chrome/90.0.4430.72 Safari/537.36" etag="eaPhpFJTSEt5a2zXqw2V" version="14.6.3" type="github">
  <diagram id="uqzwHubhoph6ilQS5ieh" name="Page-1">
    <mxGraphModel dx="942" dy="535" grid="1" gridSize="10" guides="1" tooltips="1" connect="1" arrows="1" fold="1" page="1" pageScale="1" pageWidth="827" pageHeight="1169" math="0" shadow="0">
      <root>
        <mxCell id="0" />
        <mxCell id="1" parent="0" />
        <mxCell id="p1znUQS38rnLXyNsCsj7-16" value="" style="edgeStyle=orthogonalEdgeStyle;rounded=0;orthogonalLoop=1;jettySize=auto;html=1;" edge="1" parent="1" source="p1znUQS38rnLXyNsCsj7-3" target="p1znUQS38rnLXyNsCsj7-6">
          <mxGeometry relative="1" as="geometry" />
        </mxCell>
        <mxCell id="p1znUQS38rnLXyNsCsj7-3" value="起始" style="rounded=1;whiteSpace=wrap;html=1;" vertex="1" parent="1">
          <mxGeometry x="301.25" y="90" width="130" height="60" as="geometry" />
        </mxCell>
        <mxCell id="p1znUQS38rnLXyNsCsj7-15" value="" style="edgeStyle=orthogonalEdgeStyle;rounded=0;orthogonalLoop=1;jettySize=auto;html=1;" edge="1" parent="1" source="p1znUQS38rnLXyNsCsj7-4" target="p1znUQS38rnLXyNsCsj7-7">
          <mxGeometry relative="1" as="geometry" />
        </mxCell>
        <mxCell id="p1znUQS38rnLXyNsCsj7-4" value="执行" style="rounded=0;whiteSpace=wrap;html=1;" vertex="1" parent="1">
          <mxGeometry x="306.25" y="350" width="120" height="60" as="geometry" />
        </mxCell>
        <mxCell id="p1znUQS38rnLXyNsCsj7-14" value="" style="edgeStyle=orthogonalEdgeStyle;rounded=0;orthogonalLoop=1;jettySize=auto;html=1;" edge="1" parent="1" source="p1znUQS38rnLXyNsCsj7-5" target="p1znUQS38rnLXyNsCsj7-4">
          <mxGeometry relative="1" as="geometry" />
        </mxCell>
        <mxCell id="p1znUQS38rnLXyNsCsj7-5" value="输入数据" style="shape=parallelogram;perimeter=parallelogramPerimeter;whiteSpace=wrap;html=1;fixedSize=1;" vertex="1" parent="1">
          <mxGeometry x="110" y="350" width="120" height="60" as="geometry" />
        </mxCell>
        <mxCell id="p1znUQS38rnLXyNsCsj7-6" value="判断" style="rhombus;whiteSpace=wrap;html=1;" vertex="1" parent="1">
          <mxGeometry x="300" y="210" width="132.5" height="80" as="geometry" />
        </mxCell>
        <mxCell id="p1znUQS38rnLXyNsCsj7-7" value="终止" style="rounded=1;whiteSpace=wrap;html=1;" vertex="1" parent="1">
          <mxGeometry x="306.25" y="490" width="120" height="60" as="geometry" />
        </mxCell>
        <mxCell id="p1znUQS38rnLXyNsCsj7-11" value="" style="endArrow=classic;html=1;entryX=0.5;entryY=0;entryDx=0;entryDy=0;exitX=0.5;exitY=1;exitDx=0;exitDy=0;" edge="1" parent="1" source="p1znUQS38rnLXyNsCsj7-6" target="p1znUQS38rnLXyNsCsj7-4">
          <mxGeometry width="50" height="50" relative="1" as="geometry">
            <mxPoint x="432.5" y="250" as="sourcePoint" />
            <mxPoint x="652.5" y="220" as="targetPoint" />
          </mxGeometry>
        </mxCell>
        <mxCell id="p1znUQS38rnLXyNsCsj7-13" value="" style="endArrow=classic;html=1;exitX=0;exitY=0.5;exitDx=0;exitDy=0;entryX=0.5;entryY=0;entryDx=0;entryDy=0;" edge="1" parent="1" source="p1znUQS38rnLXyNsCsj7-6" target="p1znUQS38rnLXyNsCsj7-5">
          <mxGeometry width="50" height="50" relative="1" as="geometry">
            <mxPoint x="390" y="330" as="sourcePoint" />
            <mxPoint x="440" y="280" as="targetPoint" />
            <Array as="points">
              <mxPoint x="170" y="250" />
            </Array>
          </mxGeometry>
        </mxCell>
      </root>
    </mxGraphModel>
  </diagram>
</mxfile>
